<?xml version="1.0" standalone="no"?>
<!DOCTYPE svg PUBLIC "-//W3C//DTD SVG 20010904//EN"
 "http://www.w3.org/TR/2001/REC-SVG-20010904/DTD/svg10.dtd">
<svg version="1.0" xmlns="http://www.w3.org/2000/svg"
 width="32.000000pt" height="32.000000pt" viewBox="0 0 32.000000 32.000000"
 preserveAspectRatio="xMidYMid meet">

<g transform="translate(0.000000,32.000000) scale(0.100000,-0.100000)"
fill="#000000" stroke="none">
<path d="M77 252 c-10 -10 -17 -24 -17 -30 0 -14 64 -27 87 -17 16 7 14 9 -7
14 -16 4 -26 15 -28 29 -4 27 -14 28 -35 4z"/>
<path d="M197 263 c-4 -3 -7 -19 -7 -35 0 -25 3 -28 34 -28 19 0 38 5 41 10 4
6 -5 10 -19 10 -21 0 -26 5 -26 25 0 24 -10 32 -23 18z"/>
<path d="M28 204 c-5 -4 -8 -27 -8 -51 0 -36 3 -43 20 -43 15 0 20 -7 20 -25
0 -20 5 -25 25 -25 19 0 25 -5 25 -21 0 -18 5 -20 42 -17 56 4 64 28 9 28 -47
0 -56 21 -18 42 l22 12 -25 6 c-16 4 -26 14 -28 28 -3 21 -22 32 -22 12 0 -5
-11 -10 -24 -10 -21 0 -25 5 -28 36 -2 20 -6 32 -10 28z"/>
<path d="M197 153 c-11 -10 -8 -63 3 -63 6 0 10 -7 10 -15 0 -22 13 -18 40 10
l23 25 -26 0 c-22 0 -27 5 -27 25 0 24 -10 32 -23 18z"/>
</g>
</svg>
