<svg width="39" height="30" viewBox="0 0 39 30" fill="none" xmlns="http://www.w3.org/2000/svg">
<path d="M21.0732 10.2438L18.2927 13.0243L18.1463 13.1707L17.2683 14.0487L16.6098 14.7073L15.7317 15.5853L15.5854 15.7316L15.2195 16.0975L15.0732 16.2438L13.7561 17.5609L13.6098 17.7073C13.2439 18.0731 12.8049 18.439 12.2927 18.6585C12.0732 18.8048 11.8537 18.878 11.561 19.0243C11.0488 19.2438 10.4634 19.3902 9.87805 19.3902C9.5122 19.3902 9.14634 19.3902 8.85366 19.3902C8.12195 19.317 7.31707 19.0243 6.65854 18.6585C6.36585 18.5121 6.07317 18.2926 5.85366 18.0731C5.85366 18.0731 5.78049 17.9999 5.70732 17.9268L0.585366 12.8048H0.512195C0.439024 12.5853 0.365854 12.5121 0.292683 12.3658C0.146341 12.0731 0 11.7804 0 11.4146C0 11.0487 0 11.2682 0 11.2682C0 11.1951 0 11.1219 0 11.0487C0 11.0487 0 11.0487 0 10.9755C0 10.756 0.219512 10.5365 0.365854 10.317C0.365854 10.317 0.439024 10.2438 0.512195 10.1707H0.585366C0.585366 10.0975 6 4.68286 6 4.68286L9.36586 1.24383C10.0976 0.512128 11.2683 0.512128 12 1.17066L21.0732 10.2438Z" fill="#005BAA"/>
<path d="M11.1952 22.4634C10.7561 22.4634 10.3171 22.3903 9.95125 22.1708L8.92686 21.1464L8.70735 20.9269L8.19515 20.4147L5.78052 18C5.78052 18 5.85369 18.1464 5.92686 18.1464C6.14637 18.3659 6.43905 18.5854 6.73174 18.7317C7.39027 19.0976 8.12198 19.3903 8.92686 19.4634C9.29271 19.4634 9.65857 19.4634 9.95125 19.4634C10.5366 19.4634 11.122 19.3171 11.6342 19.0976C11.8537 19.0244 12.1464 18.8781 12.3659 18.7317C12.8049 18.5122 13.2439 18.1464 13.683 17.7805L13.8293 17.6342L15.1464 16.3171L15.2927 16.1708L15.6586 15.8049L15.8049 15.6586L16.683 14.7805L17.3415 14.122L18.2195 13.2439L18.3659 13.0976L24 7.46344L26.3415 4.97564L26.4878 4.8293C27.2195 4.09759 28.3171 4.09759 29.0488 4.8293L30.2927 6.0732C29.7073 6.0732 29.1952 6.29271 28.7561 6.73174L24.4391 10.9756L16.9756 18.3659L14.1952 21.0732C14.1952 21.0732 14.1952 21.1464 14.0488 21.2927C13.8293 21.5122 13.3903 21.8781 12.8049 22.1708C12.5122 22.3171 12.2195 22.3903 12 22.4634C11.8537 22.4634 11.6342 22.4634 11.4878 22.4634H11.3415H11.1952Z" fill="#ED1C24"/>
<path d="M37.0976 15.5121L36.9513 15.6585L30.8781 21.8048L24.5123 28.317C24.2928 28.5365 24.0732 28.6829 23.8537 28.9024C23.8537 28.9024 23.8537 28.9024 23.7806 28.9024C22.8293 29.5609 21.6586 29.9999 20.3415 29.9999C19.0245 29.9999 17.3415 29.4146 16.3172 28.3902C16.3172 28.3902 16.244 28.317 16.1708 28.2438L15.0732 27.1463L12.0001 24.0731L10.9757 23.0487L10.8293 22.9024C10.9757 22.9024 11.1952 22.9024 11.3415 22.9024H11.4879C11.7074 22.9024 11.8537 22.9024 12.0732 22.9024C12.3659 22.9024 12.7318 22.756 13.0245 22.6097C13.683 22.317 14.1952 21.878 14.4147 21.5853C14.4879 21.5121 14.5611 21.439 14.6342 21.3658L16.9757 19.0243L25.1708 10.9756L29.122 7.02434C29.6342 6.51214 30.5123 6.43897 31.0976 6.87799L32.0489 7.82921L37.1708 12.9512C37.1708 12.9512 37.244 13.0243 37.3172 13.0975C37.9025 13.8292 37.8293 14.8536 37.1708 15.5121H37.0976Z" fill="#ED1C24"/>
<path d="M17.3415 8.70736C17.1951 8.8537 16.9756 8.8537 16.8293 8.70736C14.4146 6.29272 10.4634 6.29272 8.04879 8.70736C5.63415 11.122 5.63415 15.0732 8.04879 17.4878L9.95123 19.3903C9.58537 19.3903 9.29269 19.3903 8.92684 19.3903L7.53659 18C4.82927 15.2927 4.82927 10.9025 7.53659 8.19516C10.2439 5.48784 14.6342 5.48784 17.3415 8.19516C17.4878 8.3415 17.4878 8.56101 17.3415 8.70736Z" fill="#009EDB"/>
<path d="M20.2682 11.122L19.756 11.6342L18.8048 10.683C18.6585 10.5366 18.6585 10.3171 18.8048 10.1708C18.9512 10.0244 19.1707 10.0244 19.317 10.1708L20.2682 11.122Z" fill="#009EDB"/>
<path d="M12.3656 18.6587C12.1461 18.805 11.9266 18.8782 11.6339 18.9513L9.07292 16.3904C7.46316 14.7806 7.24365 12.2196 8.56073 10.3904C8.70707 10.244 8.92658 10.1709 9.07292 10.3172C9.21926 10.4635 9.29243 10.683 9.14609 10.8294C8.04853 12.4391 8.26804 14.5611 9.58512 15.9513L12.3656 18.7318V18.6587Z" fill="#009EDB"/>
<path d="M18.6585 12.6585L18.2927 13.0243L18.1463 13.1707L15.2927 10.2439C14.1951 9.14629 12.6585 8.78044 11.1951 9.21947C10.9756 9.21947 10.8293 9.21947 10.7561 8.99995C10.7561 8.78044 10.7561 8.56093 10.9756 8.56093C12.6585 7.97556 14.561 8.48776 15.8049 9.73166L18.6585 12.6585Z" fill="#009EDB"/>
<path d="M17.122 14.1952L16.6098 14.7074L13.6829 11.7805C12.9512 11.0488 11.8537 11.0488 11.122 11.7805C10.3902 12.5122 10.3902 13.6098 11.122 14.3415L12.9512 16.2439C13.0976 16.3903 13.0976 16.6098 12.9512 16.7561C12.8049 16.9025 12.5854 16.9025 12.439 16.7561L10.6098 14.8537C9.58537 13.8293 9.65854 12.2195 10.6098 11.2683C11.6342 10.2439 13.2439 10.3171 14.1951 11.2683L17.122 14.1952Z" fill="#009EDB"/>
<path d="M15.5854 15.7318L15.2195 16.0976L15.0732 16.244L12.1464 13.3171C12 13.1708 12 12.9513 12.1464 12.8049C12.2927 12.6586 12.5122 12.6586 12.6586 12.8049L15.5854 15.7318Z" fill="#009EDB"/>
</svg>
