<svg xmlns="http://www.w3.org/2000/svg" xmlns:xlink="http://www.w3.org/1999/xlink" width="24.02203369140625" height="22.988037109375" viewBox="0 0 24.02203369140625 22.988037109375">
<path d="M18.3592 6.10497L21.4451 6.54802C23.9169 6.90291 24.8985 9.94607 23.0998 11.6784L20.9131 13.7845C20.1957 14.4753 19.868 15.4771 20.0384 16.4584L20.5609 19.4684C20.9854 21.9143 18.4251 23.7881 16.2222 22.6437L13.3939 21.1746C12.527 20.7243 11.4951 20.7243 10.6281 21.1746L7.79989 22.6437C5.59692 23.7881 3.03661 21.9143 3.46118 19.4684L3.98369 16.4584C4.15401 15.4771 3.8263 14.4753 3.10898 13.7845L0.922205 11.6784C-0.876443 9.94607 0.105099 6.90291 2.57695 6.54802L5.66285 6.10497C6.63698 5.96511 7.48057 5.35638 7.92033 4.47598L9.3272 1.65941C10.4324 -0.553179 13.5897 -0.553179 14.6948 1.65941L16.1017 4.47598C16.5415 5.35638 17.3851 5.96511 18.3592 6.10497ZM11.4403 8.56226L9.6179 8.56226L6.91483 16.8525L8.43148 16.8525L8.93296 15.2211L12.0274 15.2211L12.5411 16.8525L14.1434 16.8525L11.4403 8.56226ZM16.3328 8.56226L14.7672 8.56226L14.7672 16.8525L16.3328 16.8525L16.3328 8.56226ZM10.7554 11.0759L11.5993 13.8434L9.36105 13.8434L10.2172 11.0759C10.2172 11.0759 10.3395 10.7134 10.4618 9.95202L10.5108 9.95202C10.5108 9.95202 10.6331 10.665 10.7554 11.0759Z" fill-rule="evenodd" >
</path>
</svg>
