<svg xmlns="http://www.w3.org/2000/svg" xmlns:xlink="http://www.w3.org/1999/xlink" width="24" height="24" viewBox="0 0 24 24" >
<path d="M12 24C18.6274 24 24 18.6274 24 12C24 5.37259 18.6274 0 12 0C5.37259 0 0 5.37259 0 12C0 18.6274 5.37259 24 12 24ZM12 2.26415C17.377 2.26415 21.7358 6.62304 21.7358 12C21.7358 17.377 17.377 21.7358 12 21.7358C6.62304 21.7358 2.26415 17.377 2.26415 12C2.26415 6.62304 6.62304 2.26415 12 2.26415Z" fill-rule="evenodd" >
</path>
<path d="M11.0943 8.37773C11.0943 9.37809 10.2834 10.189 9.283 10.189C8.28264 10.189 7.47168 9.37809 7.47168 8.37773C7.47168 7.37736 8.28264 6.56641 9.283 6.56641C10.2834 6.56641 11.0943 7.37736 11.0943 8.37773Z"  >
</path>
<path d="M10.6499 12.4302L6.6499 16.6602L8.2899 18.2102L11.4799 14.8502L12.6599 16.1002L13.4799 16.9702L14.2999 16.1002L19.1599 10.9702L17.5199 9.41016L13.4799 13.6702L11.4799 11.5602L10.6499 12.4302Z" fill-rule="evenodd" >
</path>
</svg>
