<svg xmlns="http://www.w3.org/2000/svg" width="20" height="20" viewBox="0 0 20 20">
  <path d="M10 2C8.34 2 7 3.34 7 5V7C7 8.5 6.5 9.5 5.5 10.5L4.5 11.5C4.22 11.78 4.22 12.22 4.5 12.5C4.64 12.64 4.82 12.71 5 12.71H15C15.18 12.71 15.36 12.64 15.5 12.5C15.78 12.22 15.78 11.78 15.5 11.5L14.5 10.5C13.5 9.5 13 8.5 13 7V5C13 3.34 11.66 2 10 2Z" fill="currentColor"/>
  <path d="M8.5 14C8.5 15.38 9.62 16.5 11 16.5H9C9.83 16.5 10.5 15.83 10.5 15C10.5 14.17 9.83 13.5 9 13.5C8.17 13.5 7.5 14.17 7.5 15C7.5 15.83 8.17 16.5 9 16.5H11C9.62 16.5 8.5 15.38 8.5 14Z" fill="currentColor"/>
</svg>