<?xml version="1.0" standalone="no"?><!DOCTYPE svg PUBLIC "-//W3C//DTD SVG 1.1//EN" "http://www.w3.org/Graphics/SVG/1.1/DTD/svg11.dtd"><svg t="1747052871931" class="icon" viewBox="0 0 1024 1024" version="1.1" xmlns="http://www.w3.org/2000/svg" p-id="27503" xmlns:xlink="http://www.w3.org/1999/xlink" width="200" height="200"><path d="M496 104c234.176 0 424 189.824 424 424a422.08 422.08 0 0 1-62.08 220.96l13.216 164.928a24 24 0 0 1-26.272 25.824l-189.216-18.816c-50.24 20.48-104.224 31.104-159.648 31.104-234.176 0-424-189.824-424-424S261.824 104 496 104zM336 480a48 48 0 1 0 0 96 48 48 0 0 0 0-96z m160 0a48 48 0 1 0 0 96 48 48 0 0 0 0-96z m160 0a48 48 0 1 0 0 96 48 48 0 0 0 0-96z"  p-id="27504"></path></svg>