<svg xmlns="http://www.w3.org/2000/svg" xmlns:xlink="http://www.w3.org/1999/xlink" width="24" height="24" viewBox="0 0 24 24">
<path   fill-rule="evenodd"   d="M24 12C24 18.6276 18.6276 24 12 24C10.0289 24 8.08832 23.5193 6.35 22.59L0 24L1.41 17.65C0.480721 15.9117 0 13.9711 0 12C0 5.3724 5.3724 0 12 0C18.6276 0 24 5.3724 24 12ZM3.5299 16.5204C2.79185 15.1428 2.3999 13.6011 2.3999 12.0004C2.3999 6.69851 6.69802 2.4004 11.9999 2.4004C17.3018 2.4004 21.5999 6.69851 21.5999 12.0004C21.5999 17.3023 17.3018 21.6004 11.9999 21.6004C10.4236 21.6004 8.86998 21.2134 7.4799 20.4704L6.6999 20.0504L3.1599 20.8404L3.9499 17.3004L3.5299 16.5204Z">
</path>
</svg>
