<?xml version="1.0" standalone="no"?><!DOCTYPE svg PUBLIC "-//W3C//DTD SVG 1.1//EN" "http://www.w3.org/Graphics/SVG/1.1/DTD/svg11.dtd"><svg t="1750057867553" class="icon" viewBox="0 0 1024 1024" version="1.1" xmlns="http://www.w3.org/2000/svg" p-id="6016" xmlns:xlink="http://www.w3.org/1999/xlink" width="200" height="200"><path d="M466.375111 390.940444v165.831112a147.911111 147.911111 0 0 0-146.545778 29.525333 128 128 0 0 0-14.336 161.052444 138.24 138.24 0 0 0 250.311111-70.940444V56.888889h168.391112a225.109333 225.109333 0 0 0 229.888 215.267555v158.208a321.934222 321.934222 0 0 1-131.584-18.716444 564.736 564.736 0 0 1-97.564445-47.843556v326.769778a284.444444 284.444444 0 0 1-208.782222 260.437334A293.489778 293.489778 0 1 1 466.488889 391.054222z" p-id="6017"></path></svg>