<svg xmlns="http://www.w3.org/2000/svg" xmlns:xlink="http://www.w3.org/1999/xlink" width="24" height="24" viewBox="0 0 24 24" fill="none">
<path    stroke="currentColor" stroke-width="2"    d="M12 21C7.02944 21 3 16.9706 3 12C3 7.02944 7.02944 3 12 3">
</path>
<path   fill="currentColor"  d="M9 11L21 11L21 13L9 13L9 11ZM21.7064 12.7064L21.7064 12.7064C21.3163 13.0965 20.6837 13.0965 20.2936 12.7064L13.2296 5.6424C12.8395 5.25227 12.8395 4.61974 13.2296 4.2296L13.2296 4.2296C13.6197 3.83947 14.2523 3.83947 14.6424 4.2296L21.7064 11.2936C22.0965 11.6837 22.0965 12.3163 21.7064 12.7064ZM21.7064 11.2936L21.7064 11.2936C22.0965 11.6837 22.0965 12.3163 21.7064 12.7064L14.6424 19.7704C14.2523 20.1605 13.6197 20.1605 13.2296 19.7704L13.2296 19.7704C12.8395 19.3803 12.8395 18.7477 13.2296 18.3576L20.2936 11.2936C20.6837 10.9035 21.3163 10.9035 21.7064 11.2936Z">
</path>
</svg>
