<svg xmlns="http://www.w3.org/2000/svg" xmlns:xlink="http://www.w3.org/1999/xlink" width="24" height="24" viewBox="0 0 24 24">
<path   fill-rule="evenodd"   d="M24 12C24 5.3724 18.6276 0 12 0C5.3724 0 0 5.3724 0 12C0 18.6276 5.3724 24 12 24C18.6276 24 24 18.6276 24 12ZM21.5999 12.0004C21.5999 6.69851 17.3018 2.4004 11.9999 2.4004C6.69801 2.4004 2.3999 6.69851 2.3999 12.0004C2.3999 17.3023 6.69801 21.6004 11.9999 21.6004C17.3018 21.6004 21.5999 17.3023 21.5999 12.0004ZM9.6001 9.5996L6.6001 17.3996L14.4001 14.3996L17.4001 6.5996L9.6001 9.5996ZM13.1998 11.9998C13.1998 11.3371 12.6625 10.7998 11.9998 10.7998C11.3371 10.7998 10.7998 11.3371 10.7998 11.9998C10.7998 12.6625 11.3371 13.1998 11.9998 13.1998C12.6625 13.1998 13.1998 12.6625 13.1998 11.9998Z">
</path>
</svg>
