<?xml version="1.0" standalone="no"?><!DOCTYPE svg PUBLIC "-//W3C//DTD SVG 1.1//EN" "http://www.w3.org/Graphics/SVG/1.1/DTD/svg11.dtd"><svg t="1746862052674" class="icon" viewBox="0 0 1024 1024" version="1.1" xmlns="http://www.w3.org/2000/svg" p-id="1494" xmlns:xlink="http://www.w3.org/1999/xlink" width="200" height="200"><path d="M512 193.194667a256 256 0 0 0-351.701333 371.84l291.370666 291.328a85.333333 85.333333 0 0 0 120.661334 0l291.370666-291.328A256 256 0 0 0 512 193.194667z m-50.005333 70.144l19.84 19.797333a42.666667 42.666667 0 0 0 60.330666 0l19.84-19.797333a170.666667 170.666667 0 1 1 241.322667 241.322666L512 796.032l-291.328-291.370667a170.666667 170.666667 0 0 1 241.322667-241.322666z"  p-id="1495"></path></svg>