<svg xmlns="http://www.w3.org/2000/svg" xmlns:xlink="http://www.w3.org/1999/xlink" width="24.00146484375" height="24.001708984375" viewBox="0 0 24.00146484375 24.001708984375" >
<path   fill-rule="evenodd"   d="M0.651465 16.5517L7.05147 17.3817C7.22221 17.4042 7.37298 17.4867 7.49146 17.6117L11.9315 22.2917C12.1018 22.4715 12.3471 22.5605 12.5915 22.5217C12.8361 22.483 13.0449 22.3252 13.1515 22.1017L15.9215 16.2817C15.9956 16.1258 16.1256 15.9958 16.2815 15.9217L22.1015 13.1517C22.3249 13.0454 22.4827 12.8361 22.5215 12.5917C22.5602 12.3473 22.4712 12.102 22.2915 11.9317L17.6115 7.49171C17.4864 7.37323 17.404 7.22245 17.3815 7.05171L16.5515 0.651709C16.5195 0.406407 16.362 0.194336 16.1415 0.081709C15.9212 -0.030918 15.6591 -0.0263241 15.4415 0.091709L9.78146 3.17171C9.62987 3.2537 9.45063 3.28347 9.28146 3.25171L2.95146 2.07171C2.70797 2.02621 2.45671 2.10646 2.28146 2.28171C2.10622 2.45673 2.02596 2.70821 2.07146 2.95171L3.25146 9.28171C3.28323 9.45087 3.25346 9.63011 3.17146 9.78171L0.0914648 15.4417C-0.0265682 15.6591 -0.0309369 15.9214 0.0814648 16.1417C0.193641 16.362 0.406163 16.5195 0.651465 16.5517ZM5.00266 5.00241L5.71266 8.82241C5.84965 9.55797 5.73086 10.3253 5.37266 10.9824L3.51266 14.3924L7.37266 14.9024C8.11385 14.9996 8.79863 15.3498 9.31266 15.8924L11.9927 18.7124L13.6627 15.2024C13.9836 14.5271 14.5276 13.984 15.2027 13.6624L18.7127 11.9924L15.8927 9.31241C15.3497 8.79791 14.9995 8.11405 14.9027 7.37241L14.3927 3.51241L10.9827 5.37241C10.3256 5.73061 9.55822 5.8494 8.82266 5.71241L5.00266 5.00241ZM24 22.2316L22.23 24.0016L16.92 18.6916L18.69 16.9216L24 22.2316Z">
</path>
</svg>
