<svg xmlns="http://www.w3.org/2000/svg" xmlns:xlink="http://www.w3.org/1999/xlink" width="93" height="37" viewBox="0 0 93 37" fill="none">
<path  transform="translate(0.5, 0.5)"   fill="url(#linear_fill_381_41_0)"  d="M0 18L0 18C0 8.05887 8.05887 0 18 0L74 0C83.9411 0 92 8.05887 92 18L92 18C92 27.9411 83.9411 36 74 36L18 36C8.05887 36 0 27.9411 0 18Z">
</path>
<path   fill-rule="evenodd"  fill="#FFFFFF"  d="M26.5 16.0999L22.5 10.8999L18.5 16.0999L14.5 13.2999L14.5 22.8999L30.5 22.8999L30.5 13.2999L26.5 16.0999ZM28.9 16.3739L28.9 21.3039L16.1 21.3039L16.1 16.3739L18.84 18.2839L22.5 13.5239L26.16 18.2839L28.9 16.3739ZM30.5 26.1L30.5 24.5L14.5 24.5L14.5 26.1L30.5 26.1Z">
</path>
<path fill-rule="evenodd"  fill="rgba(255, 75, 54, 0.5)"  d="M26.9195 13.365L32.5 9.45859L32.5 28.1L12.5 28.1L12.5 9.45859L18.0805 13.365L22.5 7.61966L26.9195 13.365ZM28.5 14.6999L26.8274 15.8707L26.5 16.0999L26.2542 15.7803L23.7616 12.54L22.5 10.8999L21.2384 12.54L18.7458 15.7803L18.5 16.0999L18.1726 15.8707L14.5 13.2999L14.5 22.8999L30.5 22.8999L30.5 13.2999L28.5 14.6999ZM26.9 17.7681L26.16 18.2839L23.7614 15.1645L22.7523 13.8521L22.5 13.5239L22.2477 13.8521L18.84 18.2839L18.1 17.7681L16.5 16.6527L16.1 16.3739L16.1 21.3039L28.9 21.3039L28.9 19.3039L28.9 18.8119L28.9 16.3739L28.5 16.6527L26.9 17.7681ZM22.5 16.805L24.4214 19.3039L20.5786 19.3039L22.5 16.805ZM14.5 24.8999L14.5 26.1L30.5 26.1L30.5 24.5L14.5 24.5L14.5 24.8999Z">
</path>
<g >
<path     fill="#FFFFFF"  d="M38.138 25.88L40.802 25.88L40.802 21.146L42.584 21.146C45.446 21.146 47.732 19.778 47.732 16.736C47.732 13.586 45.464 12.542 42.512 12.542L38.138 12.542L38.138 25.88ZM40.802 19.04L40.802 14.666L42.314 14.666C44.15 14.666 45.122 15.188 45.122 16.736C45.122 18.266 44.24 19.04 42.404 19.04L40.802 19.04ZM52.808 18.734L52.808 14.666L54.536 14.666C56.246 14.666 57.182 15.152 57.182 16.592C57.182 18.014 56.246 18.734 54.536 18.734L52.808 18.734ZM57.398 25.88L60.368 25.88L57.254 20.426C58.784 19.832 59.792 18.59 59.792 16.592C59.792 13.532 57.578 12.542 54.77 12.542L50.144 12.542L50.144 25.88L52.808 25.88L52.808 20.84L54.662 20.84L57.398 25.88ZM67.712 26.132C71.24 26.132 73.67 23.486 73.67 19.148C73.67 14.828 71.24 12.308 67.712 12.308C64.184 12.308 61.754 14.828 61.754 19.148C61.754 23.486 64.184 26.132 67.712 26.132ZM67.712 23.828C65.732 23.828 64.49 21.992 64.49 19.148C64.49 16.304 65.732 14.594 67.712 14.594C69.692 14.594 70.952 16.304 70.952 19.148C70.952 21.992 69.692 23.828 67.712 23.828Z">
</path>
<path fill-rule="evenodd"  fill="rgba(255, 75, 54, 0.5)"  d="M62.6559,24.9236c-1.26793,-1.45573 -1.9019,-3.38093 -1.9019,-5.7756c0,-2.38307 0.6371,-4.28553 1.9113,-5.7074c0.6256,-0.69807 1.37243,-1.22923 2.2405,-1.5935c0.8566,-0.3594 1.792,-0.5391 2.8062,-0.5391c1.0142,0 1.9496,0.1797 2.8062,0.5391c0.86807,0.36427 1.6149,0.89543 2.2405,1.5935c1.2742,1.42187 1.9113,3.32433 1.9113,5.7074c0,2.39467 -0.63397,4.31987 -1.9019,5.7756c-0.6256,0.71813 -1.37123,1.26603 -2.2369,1.6437c-0.8628,0.37647 -1.80253,0.5647 -2.8192,0.5647c-1.01667,0 -1.9564,-0.18823 -2.8192,-0.5647c-0.86567,-0.37767 -1.6113,-0.92557 -2.2369,-1.6437zM42.512,11.542c1.81527,0 3.24533,0.36543 4.2902,1.0963c1.28653,0.9 1.9298,2.2659 1.9298,4.0977c0,1.77907 -0.62903,3.1575 -1.8871,4.1353c-1.09333,0.8498 -2.51363,1.2747 -4.2609,1.2747h-0.782v4.734h-4.664v-15.338zM40.802,22.146v-1h1.782c2.862,0 5.148,-1.368 5.148,-4.41c0,-3.15 -2.268,-4.194 -5.22,-4.194h-3.374h-1v1v12.338h2.664zM53.808,21.84v5.04h-4.664v-15.338h5.626c1.7454,0 3.1239,0.3523 4.1355,1.0569c1.25767,0.876 1.8865,2.20703 1.8865,3.9931c0,1.17533 -0.29183,2.18073 -0.8755,3.0162c-0.34047,0.4874 -0.76573,0.89727 -1.2758,1.2296l3.4498,6.0422h-5.2875l-2.736,-5.04zM53.808,20.84h0.854l2.736,5.04h2.97l-0.571,-1l-2.0426,-3.5775l-0.5004,-0.8765c0.3207,-0.1245 0.6185,-0.2775 0.8889,-0.46c1.0194,-0.6879 1.6491,-1.7948 1.6491,-3.374c0,-3.06 -2.214,-4.05 -5.022,-4.05h-3.626h-1v13.338h2.664v-5.04zM67.712,12.308c-3.528,0 -5.958,2.52 -5.958,6.84c0,4.338 2.43,6.984 5.958,6.984c3.528,0 5.958,-2.646 5.958,-6.984c0,-4.32 -2.43,-6.84 -5.958,-6.84zM67.712,14.594c1.98,0 3.24,1.71 3.24,4.554c0,2.844 -1.26,4.68 -3.24,4.68c-1.98,0 -3.222,-1.836 -3.222,-4.68c0,-2.844 1.242,-4.554 3.222,-4.554zM40.802,19.04v-4.374h1.512c1.836,0 2.808,0.522 2.808,2.07c0,1.53 -0.882,2.304 -2.718,2.304h-0.602h-1zM41.802,18.04h0.602c0.668,0 1.13387,-0.11277 1.3976,-0.3383c0.2136,-0.1826 0.3204,-0.5045 0.3204,-0.9657c0,-0.39873 -0.09367,-0.66233 -0.281,-0.7908c-0.27147,-0.18613 -0.78047,-0.2792 -1.527,-0.2792h-0.512zM52.808,18.734v-4.068h1.728c1.71,0 2.646,0.486 2.646,1.926c0,1.422 -0.936,2.142 -2.646,2.142h-0.728h-1zM53.808,15.666v2.068h0.728c0.6272,0 1.07387,-0.10633 1.34,-0.319c0.204,-0.163 0.306,-0.43733 0.306,-0.823c0,-0.34113 -0.0801,-0.56563 -0.2403,-0.6735c-0.24993,-0.16833 -0.7185,-0.2525 -1.4057,-0.2525zM69.952,19.148c0,-1.20007 -0.2299,-2.1201 -0.6897,-2.7601c-0.3802,-0.52927 -0.89697,-0.7939 -1.5503,-0.7939c-0.65033,0 -1.16337,0.26363 -1.5391,0.7909c-0.45527,0.6388 -0.6829,1.55983 -0.6829,2.7631c0,1.2194 0.23117,2.1665 0.6935,2.8413c0.383,0.55913 0.8925,0.8387 1.5285,0.8387c0.63887,0 1.1521,-0.2806 1.5397,-0.8418c0.46687,-0.67607 0.7003,-1.62213 0.7003,-2.8382z">
</path>
</g>
<path   transform="translate(0.5, 0.5)" stroke="rgba(255, 153, 0, 1)" stroke-width="1"    d="M0 18L0 18C0 8.05887 8.05887 0 18 0L74 0C83.9411 0 92 8.05887 92 18L92 18C92 27.9411 83.9411 36 74 36L18 36C8.05887 36 0 27.9411 0 18Z">
</path>
<defs>
<linearGradient id="linear_fill_381_41_0" x1="0" y1="18" x2="92" y2="18" gradientUnits="userSpaceOnUse">
<stop offset="0" stop-color="#FF413B"  />
<stop offset="1" stop-color="#FFC300"  />
</linearGradient>
</defs>
</svg>
