<?xml version="1.0" standalone="no"?><!DOCTYPE svg PUBLIC "-//W3C//DTD SVG 1.1//EN" "http://www.w3.org/Graphics/SVG/1.1/DTD/svg11.dtd"><svg t="1746952999143" class="icon" viewBox="0 0 1024 1024" version="1.1" xmlns="http://www.w3.org/2000/svg" p-id="8143" xmlns:xlink="http://www.w3.org/1999/xlink" width="200" height="200"><path d="M846.043 1003.081H177.957c-57.783 0-104.814-43.593-104.814-97.792V490.057c0-54.126 46.592-97.792 104.814-97.792h25.746v-96.768C203.703 127.415 341.943 0 512 0s308.297 127.415 308.297 295.424v97.28h25.746c57.783 0 104.814 43.666 104.814 97.792v415.305c0 53.687-47.104 97.28-104.814 97.28zM467.895 694.638v108.836c0 22.601 19.748 41.107 44.105 41.107 24.283 0 44.032-18.506 44.032-41.107V694.638c26.331-14.044 44.032-40.595 44.032-71.241 0-45.642-39.497-82.725-88.064-82.725-48.567 0-88.064 37.083-88.064 82.725 0 30.646 17.7 57.197 44.032 71.24zM732.16 292.352c0-113.81-98.743-206.555-220.16-206.555s-220.16 92.745-220.16 206.628v99.767h440.32v-99.767z" p-id="8144"></path></svg>