<?xml version="1.0" standalone="no"?><!DOCTYPE svg PUBLIC "-//W3C//DTD SVG 1.1//EN" "http://www.w3.org/Graphics/SVG/1.1/DTD/svg11.dtd"><svg t="1748328230463" class="icon" viewBox="0 0 1024 1024" version="1.1" xmlns="http://www.w3.org/2000/svg" p-id="8766" xmlns:xlink="http://www.w3.org/1999/xlink" width="200" height="200"><path d="M1020.66087 282.713043l-105.739131 509.773914c-3.33913 15.582609-16.695652 26.713043-32.278261 26.713043-2.226087 0-4.452174 0-6.678261-1.113043-17.808696-3.33913-30.052174-21.147826-25.6-38.956522l99.06087-476.382609-638.886957-130.226087-15.582608 71.234783c-4.452174 17.808696-22.26087 28.93913-40.069565 25.6-17.808696-4.452174-28.93913-22.26087-25.6-40.069565l23.373913-103.513044c4.452174-17.808696 21.147826-28.93913 38.956521-25.6l703.443479 142.469565c8.904348 2.226087 16.695652 6.678261 21.147826 14.469565 4.452174 7.791304 5.565217 16.695652 4.452174 25.6zM812.521739 890.434783c0 24.486957-20.034783 44.521739-44.521739 44.521739H44.521739c-24.486957 0-44.521739-20.034783-44.521739-44.521739V345.043478c0-24.486957 20.034783-44.521739 44.521739-44.521739h723.478261c24.486957 0 44.521739 20.034783 44.521739 44.521739v545.391305zM89.043478 389.565217v274.92174L277.147826 512c14.469565-12.243478 37.843478-12.243478 52.313044 1.113043l211.47826 186.991305 87.930435-75.686957c14.469565-12.243478 31.165217-12.243478 45.634783 0l36.730435 37.843479V389.565217H89.043478z m623.304348 456.347826v-81.252173l-62.330435-58.991305-84.591304 75.686957a38.733913 38.733913 0 0 1-50.086957 0L300.521739 593.252174 89.043478 765.773913V845.913043h623.304348zM527.582609 570.991304c37.843478 0 67.895652-30.052174 67.895652-67.895652 0-37.843478-31.165217-67.895652-67.895652-67.895652-37.843478 0-67.895652 30.052174-67.895652 67.895652-1.113043 36.730435 30.052174 67.895652 67.895652 67.895652z" p-id="8767"></path></svg>