<?xml version="1.0" encoding="UTF-8" standalone="no"?>
<svg
   xmlns:dc="http://purl.org/dc/elements/1.1/"
   xmlns:cc="http://creativecommons.org/ns#"
   xmlns:rdf="http://www.w3.org/1999/02/22-rdf-syntax-ns#"
   xmlns:svg="http://www.w3.org/2000/svg"
   xmlns="http://www.w3.org/2000/svg"
   viewBox="0 0 32 29.333332"
   height="29.333332"
   width="32"
   xml:space="preserve"
   id="svg2"
   version="1.1"><metadata
     id="metadata8"><rdf:RDF><cc:Work
         rdf:about=""><dc:format>image/svg+xml</dc:format><dc:type
           rdf:resource="http://purl.org/dc/dcmitype/StillImage" /></cc:Work></rdf:RDF></metadata><defs
     id="defs6"><clipPath
       id="clipPath22"
       clipPathUnits="userSpaceOnUse"><path
         id="path20"
         d="M 0,0 H 24 V 22 H 0 Z" /></clipPath></defs><g
     transform="matrix(1.3333333,0,0,-1.3333333,0,29.333333)"
     id="g10"><g
       transform="matrix(1,0,0,-1,0,22)"
       id="g12"><g
         id="g14"><g
           id="g16"><g
             clip-path="url(#clipPath22)"
             id="g18"><g
               id="g24"><g
                 id="g26"><g
                   id="g28"><path
                     id="path30"
                     style="fill-opacity:1;fill-rule:nonzero;stroke:none;fill:var(--c-invert-icon)"
                     d="m 7.89,0 h 8.22 c 1.5136,0 2.9249,0.778263 3.73,2.06 l 2.39,3.81 c 1.0465,1.66607 0.8571,3.81847 -0.46,5.28 l -6.5,7.22 c -1.7476,1.9392 -4.7924,1.9392 -6.54,0 L 2.23,11.15 C 0.91289,9.68847 0.723545,7.53607 1.77,5.87 L 4.16,2.06 C 4.96506,0.778263 6.37641,0 7.89,0 Z" /></g></g><g
                 id="g32"><g
                   id="g34"><path
                     id="path36"
                     style="fill-opacity:1;fill-rule:nonzero;stroke:none;fill:var(--c-invert-text)"
                     d="M 8.35425,10.3039 12,14.0635 11.2821,14.7597 12,14.0635 c 0,0 0,0 0,0 L 12.7179,14.7597 12,14.0635 l 3.6457,-3.7596 1.4358,1.3922 -3.6457,3.7597 v 0 c -0.7857,0.8103 -2.0859,0.8103 -2.8716,0 v 0 L 6.91845,11.6961 Z" /></g></g></g></g></g></g></g></g></svg>