<svg xmlns="http://www.w3.org/2000/svg" xmlns:xlink="http://www.w3.org/1999/xlink" width="24" height="24" viewBox="0 0 24 24">
<path   fill-rule="evenodd"   d="M24 12C24 5.3724 18.6276 0 12 0C5.3724 0 0 5.3724 0 12C0 18.6276 5.3724 24 12 24C18.6276 24 24 18.6276 24 12ZM21.5999 12.0004C21.5999 6.69851 17.3018 2.4004 11.9999 2.4004C6.69801 2.4004 2.3999 6.69851 2.3999 12.0004C2.3999 17.3023 6.69801 21.6004 11.9999 21.6004C17.3018 21.6004 21.5999 17.3023 21.5999 12.0004ZM5.3999 11.4002L11.9999 18.0002L18.5999 11.4002L15.5999 7.2002L8.3999 7.2002L5.3999 11.4002ZM8.5317 11.1496L12.0017 14.6196L15.4717 11.1496L14.3617 9.5996L9.6317 9.5996L8.5317 11.1496Z">
</path>
</svg>
