<?xml version="1.0" standalone="no"?><!DOCTYPE svg PUBLIC "-//W3C//DTD SVG 1.1//EN" "http://www.w3.org/Graphics/SVG/1.1/DTD/svg11.dtd"><svg t="1748327402389" class="icon" viewBox="0 0 1024 1024" version="1.1" xmlns="http://www.w3.org/2000/svg" p-id="4073" xmlns:xlink="http://www.w3.org/1999/xlink" width="200" height="200"><path d="M170.666667 834.176V938.666667a42.666667 42.666667 0 1 1-85.333334 0V725.333333a42.666667 42.666667 0 0 1 42.666667-42.666666h213.333333a42.666667 42.666667 0 1 1 0 85.333333h-115.584c71.786667 80.32 174.933333 128 286.250667 128 212.074667 0 384-171.925333 384-384a42.666667 42.666667 0 1 1 85.333333 0c0 259.2-210.133333 469.333333-469.333333 469.333333a468.437333 468.437333 0 0 1-341.333333-147.157333zM853.333333 189.824V85.333333a42.666667 42.666667 0 1 1 85.333334 0v213.333334a42.666667 42.666667 0 0 1-42.666667 42.666666H682.666667a42.666667 42.666667 0 1 1 0-85.333333h115.584C726.464 175.68 623.317333 128 512 128 299.925333 128 128 299.925333 128 512a42.666667 42.666667 0 1 1-85.333333 0C42.666667 252.8 252.8 42.666667 512 42.666667c131.648 0 254.08 54.656 341.333333 147.157333z" p-id="4074"></path></svg>