<svg xmlns="http://www.w3.org/2000/svg" xmlns:xlink="http://www.w3.org/1999/xlink" width="24" height="24" viewBox="0 0 24 24">
<path d="M8.9728 2.30569Q8.57052 2.61138 8.43517 3.09816L7.92347 4.93843L6.07356 4.46122Q5.58426 4.335 5.11832 4.53058Q4.65239 4.72615 4.39977 5.1638L2.27991 8.83633Q2.02726 9.27402 2.09099 9.77535Q2.15472 10.2767 2.50883 10.6373L3.84721 12L2.50883 13.3627Q2.15472 13.7233 2.09099 14.2246Q2.02726 14.726 2.27991 15.1637L4.39977 18.8362Q4.65239 19.2738 5.11832 19.4694Q5.58426 19.665 6.07357 19.5388L7.92347 19.0616L8.43517 20.9018Q8.57052 21.3886 8.9728 21.6943Q9.37509 22 9.88034 22L14.1201 22Q14.6254 22 15.0276 21.6943Q15.4299 21.3886 15.5653 20.9018L16.077 19.0616L17.9269 19.5388Q18.4162 19.665 18.8821 19.4694Q19.3481 19.2738 19.6007 18.8362L21.7205 15.1637Q21.9732 14.726 21.9095 14.2246Q21.8457 13.7233 21.4916 13.3627L20.1532 12L21.4916 10.6373Q21.8457 10.2767 21.9095 9.77535Q21.9732 9.27402 21.7205 8.83633L19.6007 5.1638Q19.3481 4.72615 18.8821 4.53058Q18.4162 4.335 17.9269 4.46122L16.077 4.93843L15.5653 3.09816Q15.4299 2.61138 15.0276 2.30569Q14.6254 2 14.1201 2L9.88034 2Q9.37509 2 8.9728 2.30569ZM10.2603 4L9.71928 5.94564L9.7186 5.94809Q9.55486 6.53946 9.02299 6.84565Q8.4926 7.15099 7.8994 6.9977L7.89846 6.99746L5.94195 6.49274L4.20205 9.50701L5.61608 10.9468L5.61757 10.9483Q6.04792 11.3857 6.04792 12Q6.04792 12.6143 5.61757 13.0517L5.61608 13.0532L4.20205 14.493L5.94195 17.5073L7.89846 17.0025L7.8994 17.0023Q8.4926 16.849 9.02299 17.1544Q9.55486 17.4605 9.7186 18.0519L9.71928 18.0544L10.2603 20L13.7402 20L14.2812 18.0544L14.2818 18.0519Q14.4456 17.4605 14.9775 17.1544Q15.5079 16.849 16.1011 17.0023L16.102 17.0025L18.0585 17.5073L19.7984 14.493L18.3844 13.0532L18.3829 13.0517Q17.9525 12.6143 17.9525 12Q17.9525 11.3857 18.3829 10.9483L18.3844 10.9468L19.7984 9.50701L18.0585 6.49274L16.102 6.99746L16.1011 6.9977Q15.5079 7.15099 14.9775 6.84565Q14.4456 6.53946 14.2818 5.94809L14.2812 5.94564L13.7402 4L10.2603 4ZM7.99935 12C7.99935 14.2095 9.79076 16.0006 12.0002 16.0006C14.2089 16.0006 15.9993 14.2086 15.9993 12C15.9993 9.79053 14.2097 7.9994 12.0002 7.9994C9.7906 7.9994 7.99935 9.79038 7.99935 12ZM13.9993 12C13.9993 13.1041 13.1043 14.0006 12.0002 14.0006C10.8953 14.0006 9.99935 13.1049 9.99935 12C9.99935 10.8949 10.8952 9.9994 12.0002 9.9994C13.1051 9.9994 13.9993 10.8951 13.9993 12Z" fill-rule="evenodd"  >
</path>
</svg>
