<svg width="24" height="24" viewBox="0 0 24 24" fill="none" xmlns="http://www.w3.org/2000/svg">
    <g id="play=yes" clip-path="url(#clip0_4281_10198)">
        <path id="Vector"
            d="M12 2C6.477 2 2 6.477 2 12C2 17.523 6.477 22 12 22C17.523 22 22 17.523 22 12C22 6.477 17.523 2 12 2ZM11 8.75V15.25C11 15.4489 10.921 15.6397 10.7803 15.7803C10.6397 15.921 10.4489 16 10.25 16C10.0511 16 9.86032 15.921 9.71967 15.7803C9.57902 15.6397 9.5 15.4489 9.5 15.25V8.75C9.5 8.55109 9.57902 8.36032 9.71967 8.21967C9.86032 8.07902 10.0511 8 10.25 8C10.4489 8 10.6397 8.07902 10.7803 8.21967C10.921 8.36032 11 8.55109 11 8.75ZM17 8.75V15.25C17 15.4489 16.921 15.6397 16.7803 15.7803C16.6397 15.921 16.4489 16 16.25 16C16.0511 16 15.8603 15.921 15.7197 15.7803C15.579 15.6397 15.5 15.4489 15.5 15.25V8.75C15.5 8.55109 15.579 8.36032 15.7197 8.21967C15.8603 8.07902 16.0511 8 16.25 8C16.4489 8 16.6397 8.07902 16.7803 8.21967C16.921 8.36032 17 8.55109 17 8.75ZM14 10.25V13.75C14 13.9489 13.921 14.1397 13.7803 14.2803C13.6397 14.421 13.4489 14.5 13.25 14.5C13.0511 14.5 12.8603 14.421 12.7197 14.2803C12.579 14.1397 12.5 13.9489 12.5 13.75V10.25C12.5 10.0511 12.579 9.86032 12.7197 9.71967C12.8603 9.57902 13.0511 9.5 13.25 9.5C13.4489 9.5 13.6397 9.57902 13.7803 9.71967C13.921 9.86032 14 10.0511 14 10.25ZM8 10.75V13.25C8 13.4489 7.92098 13.6397 7.78033 13.7803C7.63968 13.921 7.44891 14 7.25 14C7.05109 14 6.86032 13.921 6.71967 13.7803C6.57902 13.6397 6.5 13.4489 6.5 13.25V10.75C6.5 10.5511 6.57902 10.3603 6.71967 10.2197C6.86032 10.079 7.05109 10 7.25 10C7.44891 10 7.63968 10.079 7.78033 10.2197C7.92098 10.3603 8 10.5511 8 10.75Z"
            fill="#9A92FF" />
    </g>
    <defs>
        <clipPath id="clip0_4281_10198">
            <rect width="24" height="24" fill="white" />
        </clipPath>
    </defs>
</svg>